<?xml version="1.0" standalone="no"?><!DOCTYPE svg PUBLIC "-//W3C//DTD SVG 1.1//EN" "http://www.w3.org/Graphics/SVG/1.1/DTD/svg11.dtd"><svg t="1593933778647" class="icon" viewBox="0 0 1024 1024" version="1.1" xmlns="http://www.w3.org/2000/svg" p-id="2093" xmlns:xlink="http://www.w3.org/1999/xlink" width="200" height="200"><defs><style type="text/css"></style></defs><path d="M512 35.031579C247.915789 35.031579 35.031579 247.915789 35.031579 512S247.915789 988.968421 512 988.968421 988.968421 776.084211 988.968421 512 776.084211 35.031579 512 35.031579z m0 916.210526C269.473684 951.242105 72.757895 754.526316 72.757895 512S269.473684 72.757895 512 72.757895 951.242105 269.473684 951.242105 512 754.526316 951.242105 512 951.242105z" fill="#108ee9" p-id="2094"></path><path d="M463.494737 296.421053h-91.621053c-16.168421 0-29.642105 13.473684-29.642105 29.642105V700.631579c0 16.168421 13.473684 29.642105 29.642105 29.642105h91.621053c16.168421 0 29.642105-13.473684 29.642105-29.642105V323.368421c0-16.168421-13.473684-26.947368-29.642105-26.947368z m-8.084211 393.431579h-75.452631V334.147368h75.452631v355.705264zM652.126316 296.421053h-91.621053c-16.168421 0-29.642105 13.473684-29.642105 29.642105V700.631579c0 16.168421 13.473684 29.642105 29.642105 29.642105h91.621053c16.168421 0 29.642105-13.473684 29.642105-29.642105V323.368421c0-16.168421-13.473684-26.947368-29.642105-26.947368z m-8.084211 393.431579h-75.452631V334.147368h75.452631v355.705264z" fill="#108ee9" p-id="2095"></path></svg>